# xmcd
#
# Track frame offsets:
#	150
#	17646
#	33365
#	47375
#	59490
#	74773
#	87733
#	103796
#	118589
#	131882
#	144838
#	156003
#
# Disc length: 2296 seconds
#
# Revision: 0
# Processed by: cddbd v1.5.1PL0 Copyright (c) Steve Scherf et al.
# Submitted via: dBpowerAMP V4.0
#
DISCID=a908f60c
DTITLE=Cornelio Vega - El Clavo
DYEAR=1900
DGENRE=
TTITLE0=Me basta
TTITLE1=Los costales
TTITLE2=Besos besitos
TTITLE3=El clavo
TTITLE4=Chiquilla
TTITLE5=Pasos contados
TTITLE6=Ay mujeres
TTITLE7=Disculpe usted
TTITLE8=Corazon
TTITLE9=Cruce seguro
TTITLE10=El sonorense
TTITLE11=Que sacrificio
EXTD=
EXTT0=
EXTT1=
EXTT2=
EXTT3=
EXTT4=
EXTT5=
EXTT6=
EXTT7=
EXTT8=
EXTT9=
EXTT10=
EXTT11=
PLAYORDER=
